<svg width="2000px" height="1496px"
 viewBox="0.00 0.00 524.09 391.83" xmlns="http://www.w3.org/2000/svg" xmlns:xlink="http://www.w3.org/1999/xlink">
<g id="graph0" class="graph" transform="scale(1.0 1.0) rotate(0) translate(4 387.83)">
<title>ContextMapGraph</title>
<polygon fill="white" stroke="transparent" points="-4,4 -4,-387.83 520.09,-387.83 520.09,4 -4,4"/>
<!-- CargoBookingContext -->
<g id="node1" class="node">
<title>CargoBookingContext</title>
<polygon fill="none" stroke="black" stroke-width="2" points="283.62,-163.55 290.85,-165.57 297.73,-167.67 304.23,-169.84 310.32,-172.06 315.97,-174.33 321.16,-176.63 325.87,-178.97 330.08,-181.33 333.77,-183.71 336.92,-186.09 339.53,-188.48 341.57,-190.85 343.05,-193.21 343.95,-195.55 344.28,-197.86 344.04,-200.14 343.22,-202.37 341.84,-204.57 339.9,-206.71 337.41,-208.8 334.39,-210.83 330.85,-212.79 326.81,-214.69 322.29,-216.52 317.31,-218.28 311.9,-219.97 306.07,-221.57 299.86,-223.1 293.3,-224.55 286.41,-225.92 279.22,-227.21 271.76,-228.41 264.07,-229.52 256.18,-230.56 248.11,-231.5 239.89,-232.36 231.57,-233.13 223.16,-233.82 214.7,-234.42 206.22,-234.93 197.74,-235.35 189.29,-235.68 180.89,-235.92 172.58,-236.08 164.36,-236.14 156.28,-236.12 148.33,-236 140.55,-235.79 132.94,-235.5 125.54,-235.1 118.34,-234.62 111.36,-234.04 104.61,-233.37 98.1,-232.61 91.84,-231.75 85.85,-230.8 80.11,-229.76 74.64,-228.62 69.45,-227.39 64.53,-226.06 59.89,-224.65 55.53,-223.15 51.45,-221.56 47.66,-219.88 44.15,-218.12 40.92,-216.28 37.99,-214.36 35.33,-212.37 32.97,-210.31 30.9,-208.18 29.11,-205.99 27.62,-203.75 26.42,-201.45 25.51,-199.11 24.9,-196.74 24.6,-194.33 24.6,-191.9 24.9,-189.45 25.52,-186.99 26.45,-184.54 27.7,-182.09 29.27,-179.65 31.16,-177.25 33.39,-174.87 35.95,-172.54 38.85,-170.26 42.08,-168.04 45.65,-165.88 49.57,-163.81 53.82,-161.81 58.42,-159.91 63.36,-158.12 68.63,-156.43 74.23,-154.85 80.15,-153.4 86.4,-152.07 92.95,-150.88 99.8,-149.83 106.94,-148.91 114.34,-148.15 122,-147.53 129.9,-147.07 138.02,-146.76 146.34,-146.61 154.83,-146.61 163.47,-146.76 172.23,-147.07 181.09,-147.54 190.02,-148.15 198.98,-148.91 207.96,-149.81 216.91,-150.86 225.8,-152.03 234.6,-153.34 243.27,-154.77 251.79,-156.32 260.12,-157.98 268.22,-159.74 276.07,-161.6 283.62,-163.55"/>
<text text-anchor="middle" x="172.09" y="-190.54" font-family="sans-serif" font-size="16.00">CargoBookingContext</text>
</g>
<!-- VoyagePlanningContext -->
<g id="node2" class="node">
<title>VoyagePlanningContext</title>
<polygon fill="none" stroke="black" stroke-width="2" points="412.59,-74.39 406.32,-76.74 399.72,-79.01 392.81,-81.18 385.61,-83.24 378.15,-85.2 370.46,-87.03 362.56,-88.74 354.48,-90.31 346.24,-91.74 337.88,-93.03 329.42,-94.16 320.88,-95.14 312.29,-95.95 303.67,-96.61 295.06,-97.1 286.46,-97.42 277.9,-97.58 269.41,-97.58 261,-97.41 252.7,-97.08 244.51,-96.6 236.46,-95.96 228.57,-95.17 220.85,-94.24 213.31,-93.16 205.97,-91.96 198.84,-90.62 191.94,-89.17 185.27,-87.6 178.84,-85.93 172.67,-84.17 166.77,-82.31 161.13,-80.38 155.78,-78.37 150.72,-76.3 145.96,-74.18 141.5,-72.01 137.36,-69.81 133.53,-67.57 130.03,-65.31 126.86,-63.04 124.03,-60.76 121.54,-58.48 119.41,-56.2 117.63,-53.94 116.21,-51.7 115.17,-49.48 114.49,-47.3 114.19,-45.14 114.28,-43.02 114.75,-40.95 115.61,-38.92 116.86,-36.94 118.52,-35.01 120.57,-33.13 123.02,-31.3 125.87,-29.54 129.12,-27.83 132.77,-26.18 136.82,-24.59 141.26,-23.06 146.09,-21.6 151.3,-20.19 156.89,-18.85 162.84,-17.58 169.15,-16.37 175.81,-15.23 182.79,-14.15 190.1,-13.14 197.7,-12.2 205.59,-11.32 213.74,-10.52 222.14,-9.8 230.75,-9.14 239.56,-8.56 248.55,-8.06 257.68,-7.64 266.93,-7.3 276.27,-7.05 285.67,-6.88 295.1,-6.8 304.53,-6.82 313.93,-6.93 323.26,-7.13 332.5,-7.44 341.61,-7.85 350.56,-8.36 359.32,-8.97 367.85,-9.7 376.13,-10.53 384.12,-11.47 391.8,-12.53 399.13,-13.69 406.09,-14.97 412.66,-16.36 418.81,-17.86 424.51,-19.46 429.75,-21.18 434.51,-22.99 438.77,-24.91 442.51,-26.92 445.73,-29.03 448.41,-31.22 450.54,-33.49 452.13,-35.84 453.16,-38.26 453.63,-40.73 453.55,-43.26 452.92,-45.84 451.74,-48.45 450.02,-51.09 447.78,-53.74 445.01,-56.41 441.75,-59.07 438,-61.71 433.78,-64.34 429.1,-66.93 424,-69.47 418.49,-71.96 412.59,-74.39"/>
<text text-anchor="middle" x="276.09" y="-45.06" font-family="sans-serif" font-size="16.00">VoyagePlanningContext</text>
</g>
<!-- CargoBookingContext&#45;&gt;VoyagePlanningContext -->
<g id="edge1" class="edge">
<title>CargoBookingContext&#45;&gt;VoyagePlanningContext</title>
<path fill="none" stroke="black" stroke-width="2" d="M204.15,-149.12C216.2,-132.49 229.94,-113.53 242.17,-96.67"/>
<text text-anchor="middle" x="269.09" y="-119.12" font-family="sans-serif" font-size="12.00">Shared Kernel</text>
</g>
<!-- LocationContext -->
<g id="node3" class="node">
<title>LocationContext</title>
<polygon fill="none" stroke="black" stroke-width="2" points="224.59,-297.42 231.97,-296.2 239.45,-295.1 247,-294.12 254.58,-293.26 262.17,-292.54 269.74,-291.96 277.26,-291.51 284.71,-291.2 292.05,-291.03 299.26,-291.01 306.33,-291.14 313.22,-291.4 319.91,-291.82 326.39,-292.38 332.64,-293.08 338.64,-293.92 344.38,-294.9 349.85,-296.01 355.02,-297.25 359.91,-298.62 364.48,-300.11 368.76,-301.72 372.71,-303.43 376.35,-305.25 379.68,-307.17 382.68,-309.17 385.37,-311.26 387.75,-313.42 389.81,-315.65 391.57,-317.94 393.03,-320.28 394.19,-322.66 395.06,-325.07 395.64,-327.51 395.95,-329.96 395.99,-332.43 395.77,-334.89 395.3,-337.35 394.57,-339.79 393.61,-342.2 392.41,-344.59 390.98,-346.93 389.33,-349.24 387.47,-351.49 385.39,-353.68 383.11,-355.81 380.62,-357.87 377.94,-359.86 375.06,-361.76 371.99,-363.59 368.72,-365.33 365.28,-366.98 361.64,-368.53 357.82,-369.99 353.83,-371.35 349.65,-372.61 345.29,-373.77 340.76,-374.83 336.06,-375.79 331.19,-376.64 326.15,-377.38 320.95,-378.02 315.6,-378.56 310.09,-378.99 304.44,-379.32 298.65,-379.54 292.73,-379.66 286.7,-379.69 280.55,-379.61 274.32,-379.43 267.99,-379.16 261.6,-378.79 255.16,-378.32 248.68,-377.77 242.18,-377.12 235.68,-376.38 229.2,-375.55 222.76,-374.63 216.38,-373.63 210.09,-372.55 203.91,-371.39 197.85,-370.14 191.96,-368.82 186.24,-367.42 180.72,-365.95 175.44,-364.41 170.4,-362.8 165.64,-361.12 161.18,-359.38 157.03,-357.57 153.23,-355.71 149.79,-353.79 146.73,-351.82 144.07,-349.81 141.82,-347.74 139.99,-345.64 138.61,-343.5 137.68,-341.33 137.2,-339.14 137.19,-336.92 137.65,-334.68 138.58,-332.44 139.98,-330.19 141.84,-327.94 144.17,-325.69 146.95,-323.46 150.18,-321.25 153.84,-319.07 157.92,-316.92 162.4,-314.8 167.26,-312.74 172.5,-310.73 178.07,-308.78 183.96,-306.9 190.15,-305.09 196.61,-303.37 203.31,-301.73 210.23,-300.19 217.33,-298.75 224.59,-297.42"/>
<text text-anchor="middle" x="276.09" y="-333.59" font-family="sans-serif" font-size="16.00">LocationContext</text>
</g>
<!-- LocationContext&#45;&gt;CargoBookingContext -->
<g id="edge2" class="edge">
<title>LocationContext&#45;&gt;CargoBookingContext</title>
<path fill="none" stroke="black" stroke-width="2" d="M234.11,-295.79C227.41,-288.47 220.81,-280.7 215.09,-272.95 206.59,-261.43 198.59,-248.03 191.85,-235.65"/>
<text text-anchor="middle" x="290.59" y="-263.35" font-family="sans-serif" font-size="12.00"> &#160;&#160;&#160;&#160;&#160;&#160;&#160;&#160;&#160;&#160;&#160;&#160;&#160;&#160;&#160;&#160;&#160;&#160;&#160;&#160;&#160;&#160;&#160;&#160;&#160;&#160;&#160;&#160;&#160;&#160;&#160;&#160;&#160;&#160;&#160;&#160;&#160;&#160;&#160;</text>
<polygon fill="white" stroke="transparent" points="184.85,-226.65 184.85,-243.65 198.85,-243.65 198.85,-226.65 184.85,-226.65"/>
<text text-anchor="start" x="186.85" y="-232.05" font-family="sans-serif" font-size="12.00">D</text>
<polygon fill="white" stroke="transparent" points="199.11,-285.79 199.11,-304.79 215.11,-304.79 215.11,-285.79 199.11,-285.79"/>
<polyline fill="none" stroke="black" points="215.11,-285.79 215.11,-304.79 "/>
<text text-anchor="start" x="202.11" y="-292.19" font-family="sans-serif" font-size="12.00">U</text>
<polygon fill="white" stroke="transparent" points="215.11,-285.79 215.11,-304.79 270.11,-304.79 270.11,-285.79 215.11,-285.79"/>
<polygon fill="none" stroke="black" points="215.11,-285.79 215.11,-304.79 270.11,-304.79 270.11,-285.79 215.11,-285.79"/>
<text text-anchor="start" x="218.11" y="-292.19" font-family="sans-serif" font-size="12.00">OHS, PL</text>
</g>
<!-- LocationContext&#45;&gt;VoyagePlanningContext -->
<g id="edge3" class="edge">
<title>LocationContext&#45;&gt;VoyagePlanningContext</title>
<path fill="none" stroke="black" stroke-width="2" d="M348.59,-295.75C355.58,-289.03 361.69,-281.44 366.09,-272.95 368.75,-267.82 366.42,-265.72 366.09,-259.95 363.2,-209.38 372.49,-193.52 353.09,-146.72 345.44,-128.27 333.19,-110.44 320.69,-95.21"/>
<text text-anchor="middle" x="440.59" y="-191.24" font-family="sans-serif" font-size="12.00"> &#160;&#160;&#160;&#160;&#160;&#160;&#160;&#160;&#160;&#160;&#160;&#160;&#160;&#160;&#160;&#160;&#160;&#160;&#160;&#160;&#160;&#160;&#160;&#160;&#160;&#160;&#160;&#160;&#160;&#160;&#160;&#160;&#160;&#160;&#160;&#160;&#160;&#160;&#160;</text>
<polygon fill="white" stroke="transparent" points="313.69,-86.21 313.69,-103.21 327.69,-103.21 327.69,-86.21 313.69,-86.21"/>
<text text-anchor="start" x="315.69" y="-91.61" font-family="sans-serif" font-size="12.00">D</text>
<polygon fill="white" stroke="transparent" points="313.59,-285.75 313.59,-304.75 329.59,-304.75 329.59,-285.75 313.59,-285.75"/>
<polyline fill="none" stroke="black" points="329.59,-285.75 329.59,-304.75 "/>
<text text-anchor="start" x="316.59" y="-292.15" font-family="sans-serif" font-size="12.00">U</text>
<polygon fill="white" stroke="transparent" points="329.59,-285.75 329.59,-304.75 384.59,-304.75 384.59,-285.75 329.59,-285.75"/>
<polygon fill="none" stroke="black" points="329.59,-285.75 329.59,-304.75 384.59,-304.75 384.59,-285.75 329.59,-285.75"/>
<text text-anchor="start" x="332.59" y="-292.15" font-family="sans-serif" font-size="12.00">OHS, PL</text>
</g>
</g>
</svg>
